<svg width="1300" height="1300" viewBox="0 0 1300 1300" fill="none" xmlns="http://www.w3.org/2000/svg">
<mask id="mask0_409_3719" style="mask-type:alpha" maskUnits="userSpaceOnUse" x="0" y="0" width="1296" height="1296">
<circle cx="647.869" cy="647.869" r="647.869" fill="#D9D9D9"/>
</mask>
<g mask="url(#mask0_409_3719)">
<path d="M1003.04 1182.75C1000.07 1184.87 996.668 1186.99 993.694 1189.12C990.295 1191.24 987.321 1193.37 983.923 1195.07C980.949 1196.76 978.4 1198.46 975.426 1200.16C975.001 1200.59 974.576 1200.59 974.151 1201.01C964.38 1206.96 954.184 1212.48 943.988 1217.58C941.014 1219.28 937.615 1220.98 934.641 1222.26C934.641 1222.26 934.217 1222.68 933.792 1222.68C930.393 1224.38 926.994 1226.08 923.596 1227.78C916.798 1231.18 909.576 1234.15 902.779 1237.12C899.38 1238.82 895.556 1240.1 892.158 1241.37C888.759 1242.65 884.936 1244.35 881.537 1245.62C878.138 1246.9 874.315 1248.59 870.916 1249.87C870.916 1249.87 870.916 1249.87 870.491 1249.87C867.092 1251.14 863.269 1252.42 859.87 1253.69C852.223 1256.24 844.151 1258.79 836.504 1261.34C833.955 1262.19 830.981 1263.04 828.432 1263.89C820.36 1266.44 812.289 1268.56 804.217 1270.26C801.243 1271.11 798.269 1271.54 794.87 1272.39C787.223 1274.09 779.151 1275.78 771.504 1277.48C769.805 1277.91 768.53 1277.91 766.831 1278.33C764.282 1278.76 761.308 1279.18 758.759 1279.61C754.936 1280.03 751.537 1280.88 747.713 1281.31C746.014 1281.73 744.315 1281.73 742.615 1282.16C740.491 1282.58 737.942 1283.01 735.393 1283.01C728.596 1283.86 721.374 1284.71 714.576 1285.56C712.452 1285.98 709.903 1285.98 707.779 1286.41H707.354C704.38 1286.83 701.406 1286.83 698.432 1287.25C695.458 1287.68 692.485 1287.68 689.511 1287.68C687.811 1287.68 685.687 1288.1 683.988 1288.1C680.589 1288.1 677.615 1288.53 674.642 1288.53C670.393 1288.53 666.57 1288.95 662.321 1288.95C658.073 1288.95 654.249 1288.95 650.001 1288.95C647.027 1288.95 644.053 1288.95 641.079 1288.95C461.798 1286.41 300.785 1210.36 185.655 1089.71C185.655 1089.71 185.655 1089.28 185.23 1089.28C172.485 1077.81 183.53 1016.63 234.936 977.974C299.511 929.118 454.151 898.53 454.151 898.53C454.151 898.53 514.053 888.758 736.243 935.066C866.243 962.255 965.23 1001.76 1020.46 1108.82C1031.93 1130.92 1043.4 1164.9 1003.04 1182.75Z" fill="white"/>
<path d="M737.517 930.392C819.086 946.961 906.177 964.804 973.301 1018.76C995.818 1037.03 1010.69 1063.79 1023.01 1089.71C1028.96 1102.45 1034.9 1115.62 1039.58 1129.64C1042.12 1138.99 1045.95 1149.61 1043.82 1160.65C1043.4 1163.63 1040.85 1167.45 1038.73 1169.58C1028.96 1179.35 1018.33 1185.29 1007.71 1192.94C945.262 1236.27 873.465 1266.86 799.118 1283.01C633.432 1319.12 454.151 1291.08 308.432 1203.99C260.001 1174.67 215.393 1138.99 177.158 1096.93C172.909 1091.83 172.909 1083.33 172.909 1077.81C173.334 1065.07 176.733 1052.75 180.981 1041.27C191.177 1014.93 204.347 988.595 226.863 970.327C243.007 959.281 260.426 949.935 278.269 942.288C334.347 918.497 393.399 901.928 454.151 895.131C459.249 894.706 460.099 901.928 455.001 902.778C396.798 914.673 339.02 932.516 285.066 956.732C265.524 966.503 244.707 975 228.988 990.294C214.118 1006.44 203.497 1026.41 195.001 1046.8C189.478 1059.12 185.654 1078.66 187.354 1088.43C214.118 1120.29 245.556 1148.33 279.543 1172.55C465.622 1302.55 748.138 1311.05 946.112 1202.71C963.955 1192.94 981.373 1181.9 997.942 1170.42C1006.01 1164.9 1014.51 1160.23 1020.88 1153.86C1021.31 1153.43 1020.88 1153.86 1020.88 1154.28C1020.88 1154.71 1020.46 1155.13 1020.46 1155.13C1020.88 1150.03 1019.18 1143.24 1017.06 1136.44C1009.41 1111.8 997.092 1085.88 983.922 1063.37C963.105 1029.8 927.844 1008.56 892.158 991.569C867.517 980.098 841.602 971.177 815.262 962.68C788.922 954.183 762.158 946.961 735.393 940.588C728.596 938.889 730.72 929.118 737.517 930.392Z" fill="black"/>
<path d="M1144.09 1446.14H69.6758C69.6758 1446.14 132.976 1312.75 161.016 1160.65C180.558 1055.29 195.003 993.694 249.807 959.707C288.467 935.916 371.31 911.275 406.996 898.53C431.212 890.033 436.31 897.256 453.728 892.583C453.728 894.707 454.153 896.406 454.153 898.53C454.153 898.53 500.035 1034.9 619.414 1083.33C716.702 1122.84 774.48 1096.5 783.401 1052.75C788.924 1024.71 771.506 978.824 762.584 963.955C757.486 959.707 754.088 953.334 752.388 946.962L748.99 932.942C757.061 931.243 764.708 929.118 772.356 926.569C774.905 925.72 777.029 924.87 779.578 924.02C828.434 936.766 932.944 977.975 979.251 1020.46C997.519 1037.45 1040.85 1122.42 1068.89 1245.62C1101.18 1385.39 1144.09 1446.14 1144.09 1446.14Z" fill="black"/>
<path d="M1153.86 1451.24C833.955 1453.37 384.903 1458.46 70.099 1457.19C62.4519 1457.19 56.9291 1448.69 60.3278 1441.9C98.1382 1358.63 127.877 1269.84 146.994 1180.2C149.119 1168.73 153.792 1146.21 155.916 1134.74C165.687 1088.01 173.334 1041.7 198.4 998.791C206.896 984.771 217.942 971.601 231.112 960.98C243.857 950.784 258.726 943.137 273.596 936.34C321.177 915.947 369.184 899.804 418.04 884.934C429.511 882.385 440.981 885.359 452.027 882.81C458.4 881.111 465.197 885.784 465.622 892.581L466.047 898.529L454.576 887.908C459.249 887.908 463.498 890.882 464.772 895.13C468.171 904.902 472.844 915.098 477.517 924.869C491.962 954.183 509.805 981.797 531.472 1006.01C559.936 1038.3 595.622 1063.79 636.406 1078.23C677.615 1093.53 751.112 1106.7 771.504 1057.42C774.903 1048.5 774.478 1039.15 773.204 1029.38C770.23 1009.41 763.432 988.17 753.661 970.326L755.785 972.875C748.988 963.954 746.439 953.333 747.289 943.137V934.215V932.941C747.289 932.091 748.138 931.241 748.988 931.241C754.086 929.542 758.759 927.418 763.857 925.719C768.53 923.594 773.204 921.47 777.877 918.921C779.151 918.072 780.426 918.496 781.7 918.921C809.74 926.143 836.504 935.915 863.269 946.96C903.204 963.529 942.713 982.222 977.125 1008.99C989.445 1017.91 998.367 1031.08 1005.59 1044.25C1020.03 1069.74 1031.5 1096.08 1041.7 1122.84C1059.54 1169.57 1072.71 1218.01 1084.18 1266.86C1098.63 1320.82 1116.05 1374.35 1142.81 1423.63C1145.79 1428.73 1148.76 1433.82 1151.73 1438.92L1152.58 1439.77V1440.2C1155.13 1442.32 1155.56 1448.27 1153.86 1451.24ZM1134.31 1441.05C1132.19 1443.17 1132.62 1449.12 1134.31 1451.24V1450.82L1133.47 1449.54C1103.73 1400.69 1085.03 1345.88 1069.74 1291.08C1062.09 1264.31 1056.57 1235.42 1048.92 1208.23C1034.05 1154.71 1015.79 1100.75 989.021 1051.9C984.347 1043.82 979.249 1034.9 972.877 1028.53C960.557 1017.06 946.112 1007.71 931.668 998.791C907.877 984.771 882.387 972.451 856.472 961.83C830.557 951.209 804.217 941.438 777.452 934.215L783.825 933.791C772.354 934.64 761.308 935.065 750.262 934.64L751.962 932.091C754.511 936.34 757.485 943.562 760.034 947.385C763.008 951.209 766.406 954.183 770.23 955.882C771.079 956.732 771.929 957.581 772.354 958.431C787.648 987.745 802.942 1031.5 791.896 1064.22C766.406 1128.37 681.014 1118.17 628.759 1098.2C585.001 1083.33 545.491 1054.87 514.903 1020.03C484.315 985.196 460.099 945.261 443.955 901.928L454.151 909.15C448.204 909.15 443.53 904.902 443.106 898.954L442.681 893.431L456.276 903.202C452.027 904.477 446.929 904.902 442.256 905.326C430.36 904.902 422.289 904.477 411.243 908.725C396.798 913.823 381.929 918.921 367.06 923.594C337.746 933.366 308.857 943.562 281.243 955.882C218.367 980.947 200.099 1031.08 185.655 1093.53C178.857 1122.42 173.334 1155.13 167.387 1184.44C147.844 1276.21 118.106 1365 79.4454 1450.82L69.6742 1435.1C377.681 1435.1 822.06 1438.07 1134.31 1441.05Z" fill="black"/>
<path d="M582.877 1127.94C436.308 1062.09 379.38 944.412 390.426 912.549C390.426 912.549 390.426 912.124 390.85 911.699C398.498 895.98 410.818 883.235 426.112 874.314C434.609 869.216 443.955 864.542 451.602 861.993C567.582 833.104 721.373 881.961 773.203 926.568C791.896 949.085 811.014 971.601 818.236 1031.08C828.432 1116.9 734.543 1196.34 582.877 1127.94Z" fill="white"/>
<path d="M580.753 1132.61C507.256 1099.48 438.433 1047.65 399.348 975.849C391.7 960.98 384.903 945.686 382.779 928.268C382.354 922.32 381.929 915.098 384.903 909.15C393.825 891.307 409.968 877.287 427.812 868.791C441.406 861.568 456.276 856.47 471.145 851.797C492.387 847.974 513.629 846.699 535.295 847.124C606.243 849.248 676.766 867.941 739.642 900.653C744.315 903.202 748.988 905.751 753.661 908.725C755.361 909.575 756.635 910.849 758.759 910.425C760.884 910 762.583 910.85 764.282 911.699C769.38 914.673 773.629 918.497 778.302 922.745C789.772 936.765 801.243 951.634 808.89 968.627C816.537 985.621 820.785 1003.89 823.334 1021.73C830.132 1058.27 817.812 1099.05 789.348 1124.12C731.57 1175.95 644.903 1161.93 580.753 1132.61ZM584.576 1123.69C632.158 1144.51 686.537 1157.68 737.093 1141.54C777.877 1129.22 811.439 1092.25 812.714 1048.92C813.138 1023.43 807.191 996.667 796.995 973.3C791.472 958.856 776.178 940.588 768.531 931.242C763.857 927.418 758.759 924.444 754.511 920.621C754.086 919.771 753.661 918.921 753.236 918.072C752.387 915.948 750.687 915.523 749.413 914.248C745.165 911.699 740.491 909.15 735.818 906.601C698.857 887.483 658.073 876.438 617.289 868.366C569.707 859.444 520.851 856.895 472.844 863.693C466.047 864.542 458.825 863.693 452.027 865.392C446.929 867.516 437.583 871.765 431.635 876.013C416.341 884.934 404.87 898.104 396.799 913.823L396.374 914.248C396.374 914.673 395.949 915.523 395.949 915.948C393.825 933.791 402.321 952.059 410.393 968.627C417.616 982.222 426.112 995.392 435.883 1008.14C474.968 1058.69 527.223 1097.78 584.576 1123.69Z" fill="black"/>
<path d="M777.449 1043.4C768.527 1087.16 710.749 1113.5 613.462 1073.99C512.351 1033.2 468.593 935.915 457.547 907.027C517.449 794.87 475.815 717.125 475.815 717.125C613.887 705.229 734.54 866.667 734.54 866.667L753.233 946.536C754.933 953.334 758.331 959.281 763.429 963.53C772.351 979.249 782.972 1015.36 777.449 1043.4Z" fill="white"/>
<path d="M455.424 908.301C463.496 895.981 468.594 881.536 471.993 867.517C478.365 838.203 480.49 808.465 480.914 778.726V767.68C479.64 756.634 475.816 745.164 471.568 734.968C466.045 721.373 486.012 712.876 492.385 726.471C493.235 728.17 493.235 731.144 493.235 732.844C494.509 790.621 497.058 864.968 460.522 912.974C457.973 915.523 452.875 911.7 455.424 908.301Z" fill="black"/>
<path d="M739.213 865.818C745.586 869.641 747.71 874.739 748.56 879.837C751.109 890.033 750.259 901.079 752.808 911.7C754.932 921.896 761.305 931.667 763.004 942.288C765.129 953.334 771.501 976.7 774.05 988.171C774.9 990.72 773.2 993.693 770.227 994.118C768.527 994.543 767.253 994.118 765.978 993.269C760.455 988.595 757.906 983.922 754.508 977.974C748.985 967.778 745.161 958.432 741.763 946.961C738.789 936.765 740.063 925.72 737.514 915.099C735.39 904.903 729.442 895.131 727.318 884.51C726.044 879.412 725.619 873.89 729.442 867.517C731.991 864.968 736.24 864.118 739.213 865.818Z" fill="black"/>
<path d="M769.803 977.974C688.659 973.726 622.385 948.236 557.81 833.105C612.189 881.112 676.339 899.379 743.888 907.876L752.81 946.961C754.509 953.759 764.705 973.726 769.803 977.974Z" fill="black"/>
<path d="M766.406 962.255C780.851 989.445 789.348 1023.43 780.426 1053.6C773.629 1074.84 754.086 1090.56 732.844 1096.5C683.563 1109.67 626.635 1088.86 582.877 1065.49C528.923 1035.33 488.988 984.772 463.498 929.543C461.798 925.295 467.746 921.896 470.295 926.144C479.217 943.987 489.413 961.406 500.883 977.125C512.354 993.268 525.524 1008.14 540.393 1021.31C583.727 1060.39 642.354 1084.61 700.982 1084.61C761.308 1082.91 784.25 1051.05 770.23 992.419C768.106 983.072 764.707 973.301 760.034 965.229C757.485 961.83 763.857 958.007 766.406 962.255Z" fill="black"/>
<path d="M930.817 452.027C938.464 487.713 942.287 516.602 921.47 611.765C901.078 706.504 950.784 726.046 833.104 877.713C785.098 939.739 668.692 922.321 574.379 858.17C542.516 836.504 528.921 780.85 505.13 741.34C486.438 710.327 477.941 742.615 453.3 715.85C419.738 679.314 379.379 605.818 399.346 475.818C431.634 265.099 598.594 240.458 722.222 263.824C846.699 287.615 910.424 358.138 930.817 452.027Z" fill="white"/>
<path d="M474.542 753.66C464.771 737.092 452.025 722.647 440.13 707.353C428.659 691.634 419.313 674.216 411.666 656.373C361.11 532.321 380.653 357.713 504.705 284.641C556.11 254.902 618.137 247.68 675.914 252.353C799.542 261.275 912.973 318.203 939.738 449.053C954.182 506.83 934.64 566.308 923.594 622.811C918.496 650.85 922.744 679.739 922.32 708.628C921.895 737.942 913.823 767.255 902.777 794.445C895.98 813.138 884.084 829.706 871.764 845C851.372 869.641 830.98 894.706 805.065 913.824C799.117 918.072 788.496 920.196 781.274 921.046C761.306 924.02 741.764 924.87 721.797 923.595C643.627 920.196 559.934 882.386 528.496 806.765C527.222 803.791 531.47 801.667 533.169 804.216C573.954 868.791 648.725 900.654 723.071 904.902C746.012 906.177 769.378 905.752 791.895 901.079C802.94 895.556 812.712 885.785 822.058 876.863C844.999 853.922 868.365 829.281 884.934 801.242C904.901 763.432 915.947 722.223 912.548 679.314C911.699 660.196 911.274 640.229 915.097 621.111C918.496 601.994 922.744 583.726 925.293 564.183C927.842 545.491 929.117 526.373 929.117 507.68C926.993 452.876 909.15 396.373 874.313 353.889C797.418 258.301 615.588 233.236 513.202 298.661C448.627 338.595 418.463 413.366 408.692 486.013C393.823 573.105 398.071 658.922 467.32 722.223L487.712 743.464C495.784 752.811 481.339 763.857 474.542 753.66Z" fill="black"/>
<path d="M524.671 618.562C524.671 618.562 511.501 554.837 449.475 562.484C395.945 569.281 377.253 697.582 498.756 733.268" fill="white"/>
<path d="M493.234 677.615C483.463 672.092 476.666 662.746 476.241 651.275C476.666 642.778 477.94 633.007 475.816 624.51C474.541 616.438 466.045 614.314 459.672 614.739C452.875 616.014 448.626 624.51 447.352 631.308C447.352 631.733 446.927 633.007 446.927 633.432C446.502 635.556 443.103 635.556 442.254 633.432C436.731 616.863 449.051 598.595 466.894 600.72C491.96 602.419 495.358 628.759 490.685 648.726C488.136 657.223 491.535 664.87 496.208 672.092L497.058 673.367C499.182 675.916 495.783 679.314 493.234 677.615Z" fill="black"/>
<path d="M833.102 573.53C839.475 603.693 851.37 631.732 866.24 658.072C879.41 690.36 845.423 720.948 815.259 719.673C811.861 719.673 811.436 715 814.41 714.151C833.527 708.203 850.946 695.458 853.919 675.915C855.194 669.968 853.495 664.87 850.521 659.772C836.501 633.432 828.004 603.268 830.129 573.53C830.129 571.405 833.102 571.405 833.102 573.53Z" fill="black"/>
<path d="M522.549 618.988C512.777 593.922 491.536 570.131 463.072 570.556C460.523 570.131 456.274 570.981 453.725 570.981C446.503 571.406 440.555 573.955 435.032 579.053C407.843 606.242 412.516 654.249 434.608 684.412C442.255 695.033 452.026 704.38 463.072 712.027C474.117 719.674 486.438 725.622 499.608 730.72C502.581 731.569 501.307 736.242 498.333 735.818C469.869 729.87 442.679 715.85 423.987 692.484C395.098 657.648 389.15 599.445 423.562 565.458C431.209 558.661 441.83 553.563 452.451 553.563C455.849 553.563 460.947 552.713 464.346 553.563C482.189 554.412 499.183 563.334 510.228 577.354C520 589.249 525.523 603.693 527.222 618.138C527.222 620.687 523.398 621.537 522.549 618.988Z" fill="black"/>
<path d="M791.044 760.458C791.469 774.478 770.652 810.164 730.717 793.595C692.057 777.877 680.587 703.955 735.815 739.216C763.854 757.909 781.698 760.883 791.044 760.458Z" fill="white"/>
<path d="M799.966 760.883C788.495 764.707 777.449 761.308 766.828 757.484C751.109 751.961 738.364 741.765 723.495 734.543C703.103 724.772 695.031 737.942 700.554 757.059C706.077 777.452 723.92 795.295 746.011 796.144C765.554 798.269 786.371 780.425 784.672 760.458C782.972 751.961 795.292 749.412 797.417 757.484C796.992 771.929 788.07 782.125 778.724 790.622C760.031 805.916 731.567 802.517 712.874 788.497C698.43 777.027 686.534 758.759 689.083 739.216C689.933 730.72 698.005 720.948 706.926 720.524C727.743 718.824 740.064 732.844 756.208 742.19C768.953 749.412 783.397 758.334 798.266 757.059C800.815 756.21 802.515 759.608 799.966 760.883Z" fill="black"/>
<path d="M701.401 745.164C708.199 754.935 718.82 760.033 729.865 762.582C732.414 763.432 734.538 763.432 736.663 763.432C740.486 763.432 744.31 766.405 746.434 768.53C756.63 776.602 770.65 777.876 783.395 778.301C786.369 778.301 786.369 783.399 783.395 782.974C769.8 782.125 755.355 780.85 742.61 774.477C740.061 773.628 738.787 772.778 736.663 772.778C728.591 773.628 722.218 768.53 716.271 765.131C709.473 761.308 702.676 757.484 694.604 755.785C690.78 754.935 688.656 751.536 689.081 747.713C689.931 741.765 698.427 740.066 701.401 745.164Z" fill="black"/>
<path d="M740.065 518.3C749.411 517.451 754.084 506.405 748.986 497.908C746.012 493.66 742.189 489.836 736.666 487.712C720.522 482.614 667.842 494.085 644.901 520.424C624.509 544.64 697.581 522.124 740.065 518.3Z" fill="black"/>
<path d="M852.223 525.097C845.001 522.973 842.877 512.352 848.824 505.555C851.798 502.156 856.047 499.182 860.72 498.333C875.164 495.784 908.301 508.953 917.648 534.019C926.145 555.686 886.635 533.594 852.223 525.097Z" fill="black"/>
<path d="M674.642 616.863C664.446 616.438 656.799 607.941 657.648 597.745L658.073 585.849C658.498 575.653 666.995 568.006 677.191 568.856C687.387 569.281 695.034 577.778 694.184 587.974L693.76 599.869C693.335 609.64 684.838 617.287 674.642 616.863Z" fill="black"/>
<path d="M853.496 623.235C844.149 622.81 836.927 614.738 837.352 605.392L837.777 594.346C838.201 585 846.273 577.778 855.62 578.202C864.966 578.627 872.188 586.699 871.764 596.046L871.339 607.091C870.914 616.438 862.842 623.66 853.496 623.235Z" fill="black"/>
<path d="M712.875 593.921C698.855 584.575 683.561 578.202 666.568 581.601C661.045 582.45 655.522 584.15 652.123 587.973C650.849 589.673 647.875 589.248 647.875 586.699C648.3 578.202 655.522 572.679 662.319 569.28C675.489 562.483 693.757 563.758 705.653 572.679C709.901 575.228 724.346 590.947 716.699 594.346C714.999 595.195 714.15 594.771 712.875 593.921Z" fill="black"/>
<path d="M834.377 596.046C834.377 578.203 856.469 571.83 870.063 578.203C877.71 581.602 883.233 588.399 885.357 596.471C886.207 599.02 882.384 601.144 880.684 599.02C873.462 590.523 861.142 586.275 851.37 591.373C848.397 593.072 847.972 594.347 847.122 596.046C847.122 604.543 834.802 604.118 834.377 596.046Z" fill="black"/>
<path d="M931.974 571.83C936.223 545.065 939.196 520.424 940.896 497.058C975.308 464.771 978.281 332.222 895.438 331.372C895.438 331.372 879.719 245.555 806.647 233.235C751.419 223.888 727.203 233.66 645.634 249.379C644.36 249.803 643.085 250.228 641.386 250.228C543.674 257.45 461.255 300.784 423.87 353.039C392.432 397.222 378.412 434.607 375.014 484.313C375.014 487.287 374.589 490.261 374.589 493.235V494.084C374.164 503.431 374.164 513.202 374.589 523.398C372.889 547.189 365.667 579.477 342.301 603.267C314.262 631.731 301.517 656.372 308.739 705.228C247.563 741.764 181.288 804.215 247.138 963.104C281.974 942.287 324.883 926.568 366.092 919.771C379.262 917.647 393.281 915.947 408.151 915.098C467.628 910.849 508.412 854.771 496.517 796.568C494.393 785.098 492.693 772.777 492.693 758.758C492.693 750.261 493.118 742.189 493.968 734.542C377.138 697.581 395.831 571.83 448.935 565.032C468.053 562.483 482.072 567.156 493.118 573.954C495.242 577.777 497.791 581.176 500.34 584.575C567.889 674.215 498.216 689.084 528.38 746.437C545.798 779.575 565.34 788.921 565.34 788.921C564.066 775.751 512.236 741.339 550.046 697.581C587.857 653.823 553.02 625.784 552.17 592.647C550.896 551.013 559.393 521.274 570.014 500.457C586.157 487.287 608.249 477.941 638.412 476.241C799.425 467.32 834.262 421.437 840.21 392.973C851.68 425.686 872.497 470.294 907.759 497.483C909.458 500.032 911.582 502.581 913.281 505.13C910.308 555.686 926.876 729.444 861.027 847.549C843.183 879.836 821.942 907.875 798.151 912.124C781.157 915.098 777.759 919.771 764.164 923.169C751.844 926.568 753.118 929.967 753.118 929.967C753.118 980.522 829.164 964.803 867.399 969.052C901.811 972.875 931.549 991.143 931.549 991.143C931.549 991.143 960.438 953.758 954.066 868.79C946.844 774.477 899.687 782.973 931.974 571.83Z" fill="black"/>
</g>
</svg>
